<?xml version="1.0" standalone="no"?>
<svg xmlns="http://www.w3.org/2000/svg" viewBox="0 0 58 34" width="58" height="34"><path fill="#ffffff" fill-rule="nonzero" d="M3.22 22.25L3.22 4.63L0 4.63L0 2.24L9.47 2.24L9.47 4.63L6.26 4.63L6.26 22.25L3.22 22.25ZM12.91 3.81L12.91 3.81Q12.09 3.81 11.62 3.32Q11.14 2.82 11.14 1.88L11.14 1.88Q11.14 1.35 11.27 0.99Q11.39 0.63 11.62 0.42Q11.85 0.20 12.18 0.10Q12.50 0 12.93 0L12.93 0Q13.80 0 14.26 0.45Q14.72 0.89 14.72 1.88L14.72 1.88Q14.72 2.79 14.26 3.30Q13.79 3.81 12.91 3.81ZM11.38 22.25L11.38 6.12L14.34 6.12L14.34 22.25L11.38 22.25ZM19.02 3.81L19.02 3.81Q18.20 3.81 17.72 3.32Q17.25 2.82 17.25 1.88L17.25 1.88Q17.25 1.35 17.37 0.99Q17.50 0.63 17.72 0.42Q17.95 0.20 18.28 0.10Q18.61 0 19.03 0L19.03 0Q19.91 0 20.37 0.45Q20.82 0.89 20.82 1.88L20.82 1.88Q20.82 2.79 20.36 3.30Q19.90 3.81 19.02 3.81ZM17.48 22.25L17.48 6.12L20.45 6.12L20.45 22.25L17.48 22.25ZM23.54 22.25L23.54 6.12L25.83 6.12L26.10 7.84L26.10 7.85Q26.45 7.30 26.85 6.93Q27.26 6.56 27.69 6.34Q28.13 6.12 28.58 6.02Q29.03 5.93 29.47 5.93L29.47 5.93Q30.89 5.93 31.66 6.92Q32.43 7.91 32.43 9.89L32.43 9.89L32.43 22.25L29.46 22.25L29.46 10.00Q29.46 8.93 29.13 8.51Q28.80 8.10 28.17 8.10L28.17 8.10Q27.73 8.10 27.29 8.39Q26.85 8.68 26.51 9.20L26.51 9.20L26.51 22.25L23.54 22.25ZM35.17 22.25L35.17 20.47L39.59 11.96Q40.20 10.80 40.58 9.94Q40.96 9.07 41.17 8.42Q41.39 7.77 41.47 7.29Q41.55 6.81 41.55 6.42L41.55 6.42Q41.55 5.81 41.44 5.40Q41.33 4.98 41.12 4.73Q40.90 4.48 40.58 4.37Q40.25 4.27 39.83 4.27L39.83 4.27Q38.80 4.27 38.34 5.12Q37.88 5.96 37.88 7.56L37.88 7.56L37.88 8.70L35.53 8.70Q35.40 8.04 35.31 7.49Q35.21 6.95 35.21 6.30L35.21 6.30Q35.21 5.54 35.48 4.79Q35.74 4.03 36.30 3.42Q36.87 2.81 37.74 2.44Q38.61 2.06 39.83 2.06L39.83 2.06Q41.14 2.06 42.08 2.37Q43.01 2.67 43.61 3.26Q44.20 3.84 44.48 4.69Q44.75 5.53 44.75 6.60L44.75 6.60Q44.75 7.21 44.64 7.80Q44.53 8.39 44.27 9.06Q44.02 9.74 43.61 10.54Q43.20 11.33 42.60 12.36L42.60 12.36L38.65 19.86L44.50 19.86L44.50 22.25L35.17 22.25ZM46.55 18.67L46.55 17.07L52.38 2.24L56.00 2.24L56.00 16.29L57.86 16.29L57.86 18.67L56.00 18.67L56.00 22.25L53.18 22.25L53.18 18.67L46.55 18.67ZM49.64 16.29L53.18 16.29L53.18 13.34L53.46 5.79L53.11 5.79L49.64 16.29Z"></path><line x1="17.356640625" y1="32.25390625" x2="40.498828125" y2="32.25390625" stroke="#ffffff" stroke-linecap="round"></line></svg>